<?xml version="1.0" standalone="no"?>
<!DOCTYPE svg PUBLIC "-//W3C//DTD SVG 1.1//EN" "http://www.w3.org/Graphics/SVG/1.1/DTD/svg11.dtd" >
<svg xmlns="http://www.w3.org/2000/svg">
<metadata>Generated by IcoMoon</metadata>
<defs>
<font id="icomoon" horiz-adv-x="1024">
<font-face units-per-em="1024" ascent="896" descent="-128" />
<missing-glyph horiz-adv-x="1024" />
<glyph unicode="&#x20;" d="" />
<glyph unicode="&#x78;" glyph-name="print" horiz-adv-x="1001" d="M281 543q-27-1-53-1h-83q-18 0-36.5-6t-32.5-18.5-23-32-9-45.5v-76h912v41q0 16-0.5 30t-0.5 18q0 13-5 29t-17 29.5-31.5 22.5-49.5 9h-133v-97h-438v97zM955 310v-52q0-23 0.5-52t0.5-58-10.5-47.5-26-30-33-16-31.5-4.5q-14-1-29.5-0.5t-29.5 0.5h-32l-45 128h-439l-44-128h-63q-20 0-45 1-25 0-41 9.5t-25.5 23-13.5 29.5-4 30v167h911zM163 247q-12 0-21-8.5t-9-21.5 9-21.5 21-8.5q13 0 22 8.5t9 21.5-9 21.5-22 8.5zM316 123q-8-26-14-48-5-19-10.5-37t-7.5-25-3-15 1-14.5 9.5-10.5 21.5-4h365q23 0 34 12t2 38q-5 13-9.5 30.5t-9.5 34.5q-5 19-11 39h-368zM336 498v228q0 11 2.5 23t10 21.5 20.5 15.5 34 6h188q31 0 51.5-14.5t20.5-52.5v-227h-327z" />
<glyph unicode="&#x3432;" glyph-name="movie" horiz-adv-x="1000" d="M844.58 12.58c-37.234 0-62.797 31.133-76.326 53.419 70.699 70.497 114.45 168.005 114.45 275.734 0 215.054-174.343 389.39-389.395 389.39-215.075 0-389.422-174.336-389.422-389.39s174.347-389.39 389.422-389.39c71.619 0 138.72 19.341 196.372 53.076 37.718-52.552 122.528-73.754 122.528-73.754h110.578v80.915c0.001 0-20.22 0-78.206 0zM280.944 235.448c-58.662 0-106.222 47.547-106.222 106.206 0 58.648 47.56 106.19 106.222 106.19 58.635 0 106.199-47.542 106.199-106.19-0.001-58.659-47.565-106.206-106.199-106.206zM493.599 22.794c-58.662 0-106.198 47.543-106.198 106.191 0 58.659 47.536 106.202 106.198 106.202 58.658 0 106.195-47.543 106.195-106.202-0.001-58.647-47.538-106.191-106.195-106.191zM437.462 341.643c0 31.010 25.148 56.142 56.159 56.142s56.159-25.131 56.159-56.142-25.148-56.146-56.159-56.146-56.159 25.136-56.159 56.146zM493.599 456.42c-58.662 0-106.198 47.547-106.198 106.199s47.536 106.198 106.198 106.198c58.658 0 106.195-47.546 106.195-106.198s-47.538-106.199-106.195-106.199zM608.365 341.655c0 58.648 47.56 106.19 106.199 106.19 58.661 0 106.217-47.542 106.217-106.19 0-58.659-47.557-106.206-106.217-106.206-58.64-0.001-106.199 47.546-106.199 106.206z" />
<glyph unicode="&#xe501;" glyph-name="science" d="M353.188-27.379h19.606c18.279 0 32.986-14.836 32.986-32.986v0c0-18.279 14.836-32.986 32.986-32.986h147.967c18.279 0 32.986 14.836 32.986 32.986v0c0 18.279 14.836 32.986 32.986 32.986h19.606c22.784 0 41.198 18.413 41.198 41.198v18.546c0 22.784-18.413 41.198-41.198 41.198h-319.248c-22.784 0-41.198-18.413-41.198-41.198v-18.677c0.132-22.652 18.546-41.066 41.329-41.066zM488.305 887.179c-171.679-11.79-310.108-151.676-320.574-323.355-6.889-112.598 40.271-214.334 117.895-282.025 16.955-14.836 26.362-36.297 26.362-58.816 0-43.582 35.369-78.951 78.951-78.951h243.741c43.582 0 78.951 35.369 78.951 78.951v0c0 22.784 9.936 44.377 27.155 59.477 72.195 63.319 117.764 156.311 117.764 259.903 0 198.966-168.234 358.723-370.247 344.814zM736.551 565.282c-5.565-2.118-11.393-3.047-17.088-3.047-19.737 0-38.415 12.054-45.701 31.659-30.601 82.131-104.65 133.262-183.733 127.302-26.758-2.118-50.205 18.017-52.325 44.907-1.986 26.892 18.017 50.205 44.907 52.325 122.931 9.405 236.455-67.161 282.421-190.357 9.538-25.302-3.312-53.383-28.482-62.79z" />
<glyph unicode="&#xe545;" glyph-name="vidicon" d="M61.215 400.277h702.165v-367.955h-702.165v367.955zM788.333 119.387l166.817-62.427v318.574l-166.817-63.374v-192.773zM380.582 586.938c0-88.329-71.484-159.92-159.657-159.92-88.225 0-159.71 71.591-159.71 159.92 0 88.435 71.485 160.026 159.71 160.026 88.173 0 159.657-71.59 159.657-160.026zM763.38 586.938c0-88.329-71.484-159.92-159.657-159.92-88.226 0-159.71 71.591-159.71 159.92 0 88.435 71.484 160.026 159.71 160.026 88.173 0 159.657-71.59 159.657-160.026z" />
<glyph unicode="&#xe602;" glyph-name="guanggao" d="M743.369 718.507c10.841-6.438 15.080-17.34 16.862-28.57 4.294-27.013 8.922-54.135 10.622-81.374 6.158-98.816 6.274-197.912 4.151-296.735-0.976-48.865-3.761-97.867-6.827-146.514-1.113-17.278-5.857-34.311-8.943-51.459 0-0.642-0.451-1.249-0.614-1.891-6.335-22.999-24.201-23.142-40.619-13.94-11.319 6.274-18.371 17.067-25.395 27.566-13.94 20.965-27.177 42.516-42.093 62.805-41.233 56.088-96.898 89.566-165.328 101.048-22.583 3.796-45.664 4.683-68.492 6.888-2.369 0.225-4.792 0.273-7.578 0.444v218.406h15.749c38.579 0.753 75.269 7.84 109.397 20.26l-2.355-0.749c48.297 17.751 88.422 48.169 117.568 87.256l0.479 0.672c14.746 19.511 27.655 40.523 41.397 60.846 2.089 3.127 4.157 6.274 6.328 9.312 8.055 11.346 17.394 21.183 31.109 25.702l14.582 0.027zM177.493 370.456c0.696-2.512 1.42-4.99 2.062-7.503 10.090-40.53 43.568-66.205 87.142-66.423 36.065-0.171 72.137 0 108.209 0 2.15 0 4.294 0.246 6.438 0.362v217.429c-1.809 0.164-3.092 0.41-4.403 0.41-37.376 0-74.786 0.505-112.169 0-40.585-0.662-72.308-24.105-83.627-60.512-1.338-4.519-2.423-8.895-3.652-13.353v-70.417zM247.323 264.916c8.219-29.491 17.087-58.819 24.419-88.562 7.052-28.679 11.878-57.89 18.814-86.583 5.018-20.767 18.596-34.7 40.25-36.516 21.798-1.843 43.704-2.068 65.536-0.696 28.713 1.898 40.277 23.334 39.615 49.869-0.345 17.017-7.784 32.23-19.469 42.855l-0.048 0.043c-8.278 7.378-14.352 17.063-17.218 28.045l-0.087 0.395c-3.026 11.136-7.578 32.299-11.663 53.628l-1.444 9.061c-1.98 10.759-2.28 21.798-3.482 33.84h-136.922c0.444-1.338 1.14-3.372 1.7-5.379zM844.056 409.341c-2.15 26.337-21.135 52.961-41.062 57.173v-122.402c25.812 10.397 43.233 38.523 41.090 65.229h-0.027z" />
<glyph unicode="&#xe603;" glyph-name="headset" d="M834.6 336.1l-45.3-161.2c-0.9-3.2-3-5.8-5.8-7.4-2.9-1.6-6.2-2-9.4-1.1s-5.8 3-7.4 5.8c-1.6 2.9-2 6.2-1.1 9.3l45.3 161.3c0.9 3.2 3 5.8 5.8 7.4 1.9 1 3.9 1.6 6 1.6 1.1 0 2.2-0.2 3.3-0.5 6.6-1.9 10.4-8.7 8.6-15.2zM690.1 142.8c-12.5 3.5-19.8 16.5-16.3 29l62 220.7c1.7 6.1 5.7 11.1 11.1 14.2 5.5 3.1 11.8 3.8 17.9 2.1 12.5-3.5 19.8-16.5 16.3-29l-61.9-220.7c-3.6-12.5-16.7-19.8-29.1-16.3zM509.5 749.6c-102.8 0-181.9-29.1-235.3-86.4-6.5-7-12.5-14.5-18.2-22.3 9 19.2 20.3 37.3 34.5 53.6 47.4 54.6 121.1 82.2 219 82.2 99.5 0 174-28.6 221.3-84.9 13.2-15.7 23.9-33 32.4-51.4-4.8 6.6-9.8 13.1-15.2 19.1-53.3 59.8-133.6 90.1-238.5 90.1zM254.4 408.8c2.1 0.6 4.3 0.9 6.4 0.9 4 0 7.9-1 11.5-3 5.5-3.1 9.4-8.1 11.1-14.2l62-220.7c3.5-12.5-3.8-25.5-16.3-29s-25.5 3.8-29 16.3l-62 220.7c-3.5 12.5 3.8 25.5 16.3 29zM184.6 336.1c-1.8 6.5 2 13.3 8.5 15.2 1.1 0.3 2.2 0.5 3.3 0.5 2.1 0 4.1-0.5 6-1.6 2.9-1.6 4.9-4.2 5.8-7.4l45.3-161.2c0.9-3.2 0.5-6.5-1.1-9.3-1.6-2.9-4.2-4.9-7.4-5.8s-6.5-0.5-9.4 1.1c-2.9 1.6-4.9 4.2-5.8 7.4l-45.2 161.1zM835.9 386.2c-4.3 1.2-8.8 1.8-13.2 1.8 14.6 104.4 12 236.5-64.1 327.2-54.5 64.9-138.3 97.8-249.1 97.8-109 0-191.9-31.9-246.5-94.7-80.1-92.3-80.8-229.9-66.8-330.3-4.3 0-8.7-0.6-13-1.8-25.8-7.2-41-34.1-33.7-59.9l45.3-161.3c3.5-12.5 11.7-22.9 23-29.2 1.5-0.8 3-1.5 4.6-2.2-3.2-4.9-6-10.2-7.9-15.9-13.1-37.6 6.8-78.9 44.5-92 4.9-1.7 10-2.9 15.1-3.5l161.5-26.8c2.8-13 13.2-23.6 27.1-25.7l65.2-10.2c18-2.8 34.9 9.5 37.7 27.5l2.5 16.3c2.8 18-9.5 34.8-27.5 37.6l-65.2 10.1c-15.2 2.4-29.6-6.1-35.4-19.6l-162.6 27c-2.2 0.3-4.4 0.8-6.5 1.6-18.7 6.5-28.7 27.1-22.1 45.8 4.1 11.9 14.3 20.6 26.5 23.3 11.3-14.6 28.8-23.4 47.4-23.4 5.3 0 10.8 0.7 16.2 2.2 31.8 8.9 50.4 42 41.5 73.7l-62 220.7c-4.3 15.4-14.4 28.2-28.3 36s-30.1 9.8-45.5 5.4c-4-1.1-7.8-2.6-11.4-4.5 1.7 68 17 144.8 67.6 199.1 46.2 49.7 116.4 74.8 208.6 74.8 94.1 0 165.3-26.2 211.4-77.9 47.7-53.4 63.2-127.2 64.8-196-3.5 1.8-7.2 3.3-11.2 4.4-15.4 4.3-31.6 2.4-45.5-5.5-13.9-7.8-24-20.6-28.3-36l-62-220.7c-8.9-31.8 9.7-64.8 41.5-73.7 5.4-1.5 10.8-2.2 16.2-2.2 22.3 0 43.1 12.6 53.3 32.6 4.4-3.1 9.3-5.4 14.6-6.9 4.4-1.2 8.8-1.8 13.2-1.8 8.2 0 16.4 2.1 23.8 6.3 11.3 6.4 19.5 16.7 23 29.2l45.3 161.2c7.3 26-7.8 52.8-33.6 60.1z" />
<glyph unicode="&#xe608;" glyph-name="demon" d="M958.2 384.5c0 74.1-39 138.8-97.5 175.4 1.2 7.9 1.9 15.9 1.9 24.1 0 91.6-74.3 165.9-165.9 165.9-23.5 0-45.8-4.9-66-13.7-30.1 30.9-72.2 50.2-118.7 50.2s-88.6-19.3-118.7-50.2c-20.2 8.8-42.5 13.7-66 13.7-91.6 0-165.9-74.3-165.9-165.9 0-8.2 0.8-16.2 1.9-24.1-58.5-36.5-97.5-101.3-97.5-175.4 0-67.4 32.4-127.1 82.2-164.8 0-0.5-0.1-1-0.1-1.6 0-130.6 105.9-236.5 236.5-236.5 47.4 0 91.5 14.1 128.5 38.1 37-24 81.1-38.1 128.5-38.1 130.6 0 236.5 105.9 236.5 236.5 0 1-0.1 1.9-0.1 2.9 48.8 37.8 80.4 96.9 80.4 163.5zM696.7 418.1c-46.6 0-88.6 19.3-118.7 50.2-20.2-8.8-42.5-13.7-66-13.7s-45.8 4.9-66 13.7c-30.1-30.9-72.2-50.2-118.7-50.2-4.1 0-8.2 0.3-12.2 0.6v-183.9c0-100.2 82-182.2 182.2-182.2h36.7c100.2 0 182.2 82 182.2 182.2v184.6c-6.4-0.8-12.8-1.3-19.5-1.3zM472.6 229.5c0-20.379 16.521-36.9 36.9-36.9s36.9 16.521 36.9 36.9v0c0 20.379-16.521 36.9-36.9 36.9s-36.9-16.521-36.9-36.9v0zM647.4 336h-23.4v23.4c0 7.1-5.8 12.9-12.9 12.9h-5.4c-7.1 0-12.9-5.8-12.9-12.9v-23.4h-23.4c-7.1 0-12.9-5.8-12.9-12.9v-5.4c0-7.1 5.8-12.9 12.9-12.9h23.4v-23.4c0-7.1 5.8-12.9 12.9-12.9h5.4c7.1 0 12.9 5.8 12.9 12.9v23.4h23.4c7.1 0 12.9 5.8 12.9 12.9v5.4c0.1 7.1-5.8 12.9-12.9 12.9zM449.7 336h-23.4v23.4c0 7.1-5.8 12.9-12.9 12.9h-5.4c-7.1 0-12.9-5.8-12.9-12.9v-23.4h-23.4c-7.1 0-12.9-5.8-12.9-12.9v-5.4c0-7.1 5.8-12.9 12.9-12.9h23.4v-23.4c0-7.1 5.8-12.9 12.9-12.9h5.4c7.1 0 12.9 5.8 12.9 12.9v23.4h23.4c7.1 0 12.9 5.8 12.9 12.9v5.4c0 7.1-5.8 12.9-12.9 12.9zM608.3 229.9c-7.5 0-13.7-6.1-13.7-13.7 0-37.5-38.2-67.9-85.1-67.9s-85.1 30.5-85.1 67.9c0 7.5-6.1 13.7-13.7 13.7s-13.7-6.1-13.7-13.7c0-52.5 50.5-95.3 112.5-95.3s112.5 42.7 112.5 95.3c0 7.6-6.1 13.7-13.7 13.7z" />
<glyph unicode="&#xe609;" glyph-name="The-gen" d="M918.4 604.6c-51.7 52.4-114.2 82.5-181.4 45.1 9.7 53 2.6 119.2-57.7 181.7 0 0-94-121-17.1-246.9-13.8-15.2-27.3-30.6-40.8-44.3-30-30.5 16.5-77.6 46.5-47.2 25.7 26.1 51.4 52.1 77.1 78.2 45.6 46.2 87 26.8 126.9-13.6 30-30.6 76.6 16.6 46.5 47zM729.2 578.8c-84.1 85.3-220.5 85.3-304.6 0-20.5-20.8-35.8-44.7-46.4-70.2-72.3 0.1-144.6-27.8-199.7-83.7-110.1-111.7-110.1-292.8 0-404.5s288.7-111.7 398.9 0c55.1 55.9 82.7 129.2 82.6 202.5 25.1 10.7 48.7 26.3 69.2 47 84.1 85.3 84.1 223.6 0 308.9zM514.7 56.9c-84.6-82.6-219.2-80.1-300.7 5.7-81.5 85.7-79 222.2 5.6 304.9 0 0-50.5-135.8 49.4-240.9 113.3-119.3 245.7-69.7 245.7-69.7" />
<glyph unicode="&#xe60d;" glyph-name="coffee" d="M950.257 262.868c0 83.046-62.152 151.845-142.384 162.338v17.796c0.735 5.539 1.119 11.186 1.119 16.922 0 3.204-0.492 6.293-1.403 9.197-4.348 66.542-59.862 119.35-127.49 119.35h-48.187c-16.954 0-30.699-13.745-30.699-30.699s13.745-30.699 30.699-30.699h48.187c36.6 0 66.375-29.771 66.375-66.365v-12.88c-5.712-31.046-32.969-54.649-65.655-54.649h-360.555c-32.686 0-59.943 23.603-65.655 54.649v12.88c0 36.593 29.776 66.365 66.375 66.365h37.904c16.954 0 30.699 13.745 30.699 30.699s-13.745 30.699-30.699 30.699h-37.904c-67.626 0-123.142-52.809-127.489-119.35-0.911-2.904-1.404-5.992-1.404-9.197 0-5.736 0.385-11.383 1.119-16.922v-341.43c0-70.44 57.319-127.749 127.773-127.749h359.117c70.106 0 127.196 56.743 127.761 126.704 80.236 10.488 142.395 79.289 142.395 162.34zM680.1 35.222h-359.116c-36.6 0-66.375 29.765-66.375 66.35v248.339c19.215-11.506 41.675-18.13 65.655-18.13h360.555c23.981 0 46.441 6.625 65.655 18.13v-248.339c0.001-36.585-29.775-66.35-66.375-66.35zM807.874 162.783v200.169c46.214-9.846 80.985-50.978 80.985-100.084s-34.772-90.238-80.985-100.084zM429.842 470.263c-4.932-10.171-0.686-22.413 9.485-27.345 2.878-1.396 5.919-2.056 8.915-2.056 7.596 0 14.893 4.248 18.43 11.541 1.266 2.609 30.614 64.416-1.863 109.068-6.844 9.408-8.967 19.679-6.494 31.402 2.095 9.924 6.796 17.029 6.843 17.098l-0.101-0.147-33.599 23.378c-0.884-1.271-8.751-12.901-12.734-29.825-5.6-23.792-1.109-46.608 12.983-65.983 14.936-20.535 3.698-55.465-1.863-67.132zM532.173 470.263c-4.931-10.171-0.685-22.413 9.486-27.345 2.878-1.396 5.919-2.056 8.915-2.056 7.596 0 14.894 4.248 18.431 11.541 1.265 2.609 30.614 64.416-1.864 109.068-6.843 9.408-8.967 19.679-6.493 31.402 2.095 9.924 6.796 17.029 6.843 17.098l-0.101-0.147-33.599 23.378c-0.884-1.271-8.752-12.901-12.734-29.825-5.6-23.792-1.109-46.608 12.984-65.983 14.934-20.535 3.695-55.465-1.867-67.132z" />
<glyph unicode="&#xe611;" glyph-name="game-2" d="M152.704 64h-2.688c-31.616 0.832-55.424 18.368-70.848 52.288-15.552 34.432-17.664 70.656-18.496 101.824v8.96c1.408 72.128 14.848 144.192 41.088 220.032 22.528 65.344 49.856 118.72 83.648 163.2 28.416 37.632 56.96 62.592 89.728 78.272 38.336 18.496 72.768 20.16 105.792 5.376 12.992-5.888 26.048-11.2 39.104-16.448 9.92-4.032 19.776-8 29.568-12.16 43.136-18.496 87.232-17.6 132.608 2.688 8 3.52 16.064 6.72 24.192 10.112 10.944 4.544 21.952 9.152 32.768 14.208 38.592 18.048 78.208 15.296 121.088-8.576 35.584-19.84 65.792-49.856 95.104-94.464 40.448-60.864 70.016-132.864 90.56-219.84 13.696-57.984 19.2-112.512 16.96-166.656-1.472-33.024-7.040-59.392-17.536-83.136-19.584-44.288-51.456-53.568-74.752-53.568-8.512 0-17.664 1.216-27.2 3.584-23.808 5.824-46.656 17.216-71.808 35.712-16.576 12.288-32.832 24.832-49.152 37.376-16.32 12.608-32.704 25.216-49.28 37.504-31.168 23.040-69.248 47.936-114.688 57.344-71.68 14.592-136.768 0.128-192.256-42.944-19.968-15.488-39.040-33.216-57.472-50.368-8.448-7.808-16.896-15.616-25.408-23.296-24.576-22.016-55.168-45.44-95.872-53.248-12.672-2.624-24-3.776-34.752-3.776zM335.488 676.224c-15.040 0-30.848-4.096-48.32-12.608-28.736-13.76-54.080-36.032-79.744-70.016-32-42.176-58.048-93.056-79.616-155.584-25.216-73.152-38.144-142.272-39.488-211.584v-7.488c0.896-35.52 3.968-64.512 16-91.328 11.072-24.384 25.408-35.52 46.4-36.032l2.048-13.824v13.824c8.832 0 18.752 1.088 29.568 3.072 33.984 6.592 60.8 27.264 82.56 46.72 9.727 8.76 17.874 16.258 25.947 23.834l-0.923-0.858c18.944 17.536 38.464 35.712 59.392 51.968 61.824 48 134.848 64.32 214.656 48.192 50.688-10.56 91.904-37.248 125.504-62.144 16.768-12.416 33.28-25.28 49.792-37.888 16.128-12.48 32.256-24.896 48.64-36.992 22.080-16.32 41.792-26.24 61.952-31.232 7.424-1.728 14.336-2.688 20.608-2.688 22.656 0 38.336 11.776 49.536 37.12 9.088 20.48 13.952 43.776 15.168 73.152 2.176 51.584-3.136 103.68-16.192 159.232-19.776 83.648-48.128 152.768-86.72 210.944-26.816 40.768-53.888 67.904-85.504 85.504-35.2 19.648-65.28 22.080-96 7.744-11.072-5.248-22.528-9.984-33.92-14.656-7.936-3.328-15.744-6.592-23.488-10.048-52.224-23.296-104.512-24.32-154.688-2.752-4.299 2.16-13.84 6.191-23.473 10.043l-5.455 1.925c-13.504 5.504-26.944 10.944-40.192 16.96-11.2 5.056-22.336 7.488-34.048 7.488zM725.824 318.464c-11.392 0-21.632 4.288-29.248 12.032-7.616 7.616-11.712 17.792-11.584 28.48 0.448 22.080 18.624 39.808 40.576 39.808h0.064c22.016 0 39.936-18.048 39.936-40.256 0.128-22.080-17.344-39.808-39.744-40.064zM725.696 385.024v-13.76c-6.976 0-12.928-5.824-13.056-12.672-0.064-3.264 1.28-6.336 3.584-8.768 2.496-2.432 5.76-3.84 9.216-3.84 7.36 0.064 12.736 5.504 12.736 12.48 0 6.912-5.632 12.736-12.352 12.736v13.824zM327.104 384.96c-21.76 0-41.92 8.384-57.088 23.552-15.040 15.040-23.296 35.072-23.232 56.32 0.128 43.84 35.84 79.744 79.616 80.256h0.832c43.776 0 79.616-35.904 80-79.744 0.128-21.504-8.064-41.664-23.040-56.832-15.168-15.232-35.392-23.552-57.088-23.552zM327.232 531.264l-0.512-13.76c-28.736-0.256-52.224-24-52.288-52.736 0-13.888 5.312-26.944 15.168-36.736 20.16-20.16 55.552-19.648 75.008 0 9.792 9.792 15.104 22.976 15.040 36.992-0.192 28.864-23.744 52.48-52.416 52.48v13.76zM804.928 398.272c-22.464 0.128-40.32 18.112-40.192 40.192 0 22.016 18.112 40 40.32 40h1.344c21.76-0.576 39.296-18.944 38.912-41.088-0.384-21.952-18.176-39.104-40.384-39.104zM805.056 464.704v-13.824c-6.784 0-12.736-5.888-12.736-12.544-0.064-6.912 5.504-12.48 12.544-12.48 7.36 0 12.736 4.992 12.864 12.032 0.128 6.976-5.312 12.8-12.16 12.992l-0.512 13.824zM644.224 398.272c-11.2 0-21.504 4.224-29.184 12.096-7.552 7.808-11.648 17.92-11.328 28.736 0.576 21.696 18.752 39.296 40.576 39.296h0.128c10.624 0 20.608-4.16 28.16-11.776 7.616-7.68 11.84-17.856 11.712-28.672-0.064-22.272-17.728-39.616-40.064-39.68zM644.288 450.88c-6.848 0-12.8-5.76-12.992-12.48-0.064-3.2 1.152-6.336 3.52-8.768 7.488-7.616 21.888-1.92 21.952 8.448 0 3.52-1.28 6.656-3.776 9.152-2.304 2.368-5.376 3.712-8.576 3.712h-0.128zM725.248 477.824c-22.080 0.128-40.128 18.048-40.256 40.064 0 10.624 4.16 20.672 11.84 28.288 7.744 7.808 17.92 12.032 28.608 12.032h0.96c21.888-0.512 39.552-18.816 39.232-40.96-0.192-22.144-17.984-39.424-40.384-39.424zM725.376 544.448v-13.824c-3.328 0-6.528-1.344-9.024-3.904-2.496-2.496-3.84-5.632-3.84-8.832 0-6.848 5.76-12.48 12.736-12.48 7.168 0 12.672 5.184 12.736 12.032 0 7.040-5.44 12.928-12.288 13.12l-0.32 13.888z" />
<glyph unicode="&#xe61b;" glyph-name="person" d="M761.703 124.404c-57.058 9.576-135.153 63.861-135.153 87.384v59.533c0 22.21 30.568 63.762 43.64 102.011 1.167 3.595 9.088-0.535 16.718 8.601 14.386 17.352 16.521 43.79 19.777 55.792 5.252 18.905-18.127 19.681-18.127 19.681s17.4 99.289 1.943 161.983c-20.993 85.389-133.743 128.398-177.919 128.398s-156.735-43.010-177.826-128.397c-15.456-62.695 2.333-161.983 2.333-161.983s-22.551-0.778-17.4-19.681c3.352-12.002 7.095-38.44 21.582-55.792 7.534-9.136 12.149-5.006 13.365-8.601 12.977-38.248 43.686-79.802 43.686-102.011v-59.533c0-23.522-78.193-77.807-135.249-87.384-73.288-12.247-109.494-61.962-92.386-185.844 8.649-61.913 175.149-88.498 340.048-86.213 164.9-2.285 333.929 24.299 342.483 86.213 17.203 123.88-18.229 173.596-91.514 185.843z" />
<glyph unicode="&#xe620;" glyph-name="search" d="M727.934 201.316c60.047 67.008 96.572 155.563 96.572 252.643 0 209.080-169.492 378.596-378.596 378.596-209.102 0-378.598-169.516-378.598-378.596 0-209.129 169.495-378.643 378.598-378.643 95.079 0 181.977 35.056 248.505 92.963l230.23-230.251 33.288 33.286-229.999 230.002zM445.911 122.142c-182.943 0-331.772 148.873-331.772 331.817 0 182.897 148.828 331.815 331.772 331.815 182.942 0 331.77-148.918 331.77-331.815 0-182.943-148.828-331.817-331.77-331.817z" />
<glyph unicode="&#xe646;" glyph-name="recreation" d="M699.328 668.224c0 90.496-68.928 163.776-159.488 163.776-57.92 0-107.328-15.36-136.384-60.8-29.12 45.44-81.408 60.8-139.328 60.8-90.432 0-156.544-73.28-156.544-163.776 0-110.144 223.936-252.352 284.928-297.92-11.968-24.128-27.328-37.376-40.32-59.712-0.896-1.408-0.832-3.136 0.192-4.48s2.624-2.24 4.224-1.6c29.952 11.84 56.512-6.336 84.096-3.584 1.536 0.192 2.816 1.024 3.456 2.432 0.576 1.472 0.384 3.008-0.64 4.16-8.704 11.136-14.4 23.104-19.968 34.88 92.416-106.24 54.592-171.072 14.72-239.36-30.080-51.584-61.248-82.112-35.84-153.344l14.592 5.248c-23.040 64.384 4.992 89.536 34.56 140.224 43.52 74.56 88.512 151.616-36.288 278.976 82.496 64.896 284.032 179.008 284.032 294.080v0M380.48 418.496c-41.344 29.184-103.744 73.408-155.264 121.472-70.656 65.92-85.44 106.112-85.44 128.256 0 75.008 53.44 131.584 124.352 131.584 55.616 0 92.352-15.040 112.192-46.016l27.072-42.304 27.072 42.304c20.16 31.424 54.848 46.016 109.312 46.016 71.36 0 127.232-57.856 127.232-131.584 0-75.776-126.4-165.056-210.048-224.064-20.288-14.464-39.68-28.16-55.616-40.384-6.208 4.352-13.184 9.28-20.864 14.72v0M380.48 418.496v0zM618.112 679.808c1.792-7.36 2.624-14.912 2.624-22.528 0-2.944-0.192-6.016-0.448-9.024-0.512-5.696 3.648-10.752 9.344-11.264h0.96c5.248 0 9.856 4.096 10.304 9.408 0.32 3.648 0.512 7.296 0.512 10.88 0 9.152-1.088 18.368-3.2 27.264-1.408 5.568-7.040 9.024-12.544 7.616-5.44-1.152-8.896-6.784-7.552-12.352v0M618.112 679.808v0zM484.736 746.368c12.288 5.376 25.408 8.064 38.912 8.064 32.384 0 62.464-16 80.512-42.816 2.048-2.944 5.248-4.608 8.576-4.608 1.984 0 3.968 0.576 5.76 1.792 4.8 3.264 5.952 9.728 2.816 14.4-21.888 32.512-58.432 51.968-97.664 51.968-16.32 0-32.192-3.328-47.168-9.856-5.248-2.304-7.616-8.384-5.312-13.696 2.176-5.184 8.32-7.552 13.568-5.248v0M484.736 746.368v0zM859.776 385.6c-32.448 14.976-64.064 19.008-92.096 1.088-4.608 32.96-29.824 55.040-62.272 69.888-50.624 23.296-106.496-0.704-129.792-51.328-28.352-61.696 60.224-198.912 82.752-240.128-12.928-10.432-24.96-13.824-37.952-23.040-0.832-0.576-1.216-1.536-1.024-2.56s0.96-1.984 1.984-2.048c19.776-1.024 30.016-18.112 46.144-23.68 0.96-0.32 1.856-0.192 2.56 0.512s1.024 1.536 0.768 2.496c-0.832 3.648-1.344 7.232-1.6 10.816 16.448-70.912-17.216-71.872-55.744-98.816-30.656-21.504-62.464-43.776-66.688-91.456l15.296-1.344c3.584 40.512 30.976 59.776 60.032 80.128 42.368 29.632 90.368 40.576 52.736 145.856 64.192 14.848 202.496 27.328 231.744 90.816 23.424 50.688 3.712 109.44-46.848 132.8v0M877.504 266.368c-16.832-36.608-110.4-53.952-166.4-64.32-11.712-2.24-22.912-4.224-33.152-6.4-1.024 1.856-2.112 3.712-3.328 5.696-15.424 26.752-38.656 67.136-54.848 106.56-22.72 55.68-18.048 77.312-15.040 83.968 11.84 25.664 35.008 41.536 60.48 41.536 9.024 0 17.984-2.048 26.56-6.016 40.192-18.496 43.008-38.592 43.84-45.184l6.976-49.664 42.304 27.072c7.232 4.608 14.72 6.784 23.424 6.784 10.688 0 23.424-3.392 37.824-10.048 16.32-7.488 28.48-20.8 34.304-37.44 6.016-16.896 4.864-35.584-2.944-52.544v0M877.504 266.368v0zM828.16 304.576c-0.576 0.256-1.088 0.448-1.728 0.576-4.736 1.28-9.92-1.024-12.032-5.696-3.392-7.296-8.128-13.696-14.208-18.88-1.856-1.6-2.944-3.84-3.392-6.016-0.512-2.944 0.192-6.144 2.304-8.576 2.048-2.368 4.928-3.584 7.808-3.584 2.368 0 4.864 0.832 6.784 2.56 8.32 7.104 14.848 15.872 19.456 25.92 2.432 5.12 0.192 11.328-4.992 13.696v0M828.16 304.576v0z" />
<glyph unicode="&#xe65b;" glyph-name="play-tv-2" d="M824.678 1.639h-628.722c-48.899 0-87.321 38.424-87.321 87.327v454.070c0 48.903 38.422 87.325 87.321 87.325h628.721c48.899 0 87.321-38.422 87.321-87.325v-457.564c0.001-45.409-38.421-83.832-87.32-83.832v0zM195.955 595.432c-27.941 0-52.392-20.957-52.392-52.396v-457.564c0-27.948 24.451-48.903 52.392-48.903h628.721c27.941 0 52.392 24.45 52.392 52.396v454.070c0 31.439-24.452 52.396-52.392 52.396l-628.721 0.001zM730.369 127.387h-440.106c-27.94 0-52.392 24.446-52.392 52.39v272.444c0 27.945 24.452 52.392 52.392 52.392h440.106c27.941 0 52.392-24.447 52.392-52.392v-272.444c0.001-27.944-24.451-52.39-52.392-52.39v0zM290.263 469.687c-10.477 0-17.464-6.984-17.464-17.465v-272.444c0-10.479 6.987-17.462 17.464-17.462h440.106c10.477 0 17.464 6.983 17.464 17.462v272.443c0 10.481-6.987 17.465-17.464 17.465l-440.106 0.001zM510.318 595.432h-6.987l-310.865 139.714c-6.987 6.987-10.481 17.464-6.987 24.451 3.494 10.478 13.97 13.971 20.957 10.478l303.882-136.225 303.878 136.225c10.481 3.494 17.464 0 24.452-6.984 6.987-6.987 0-17.464-6.987-24.451l-310.865-139.717c-6.988-3.49-6.988-3.49-10.478-3.49v0zM510.318 595.432" />
<glyph unicode="&#xe664;" glyph-name="folding-fan" d="M728.023 241.759l-142.346-58.948 108.936 108.936c-7.649 8.794-15.63 16.775-24.13 24.174l-0.294 0.25-108.99-108.99 58.988 142.408c-10.248 5.142-20.866 9.63-31.882 13.296l-59.030-142.512v154.122c-5.728 0.406-11.44 0.872-17.272 0.872s-11.544-0.466-17.272-0.872v-154.074l-59.020 142.47c-11.018-3.664-21.636-8.152-31.884-13.296l59.012-142.448-109.026 109.022c-8.793-7.649-16.773-15.629-24.172-24.128l-0.25-0.294 108.998-108.996-142.418 58.992c-5.142-10.248-9.632-20.866-13.298-31.884l188.172-77.944 89.362 2.96 181.116 75.004c-3.666 11.014-8.154 21.632-13.3 31.88zM1022.685 345.105c-85.956 207.236-286.401 341.151-510.683 341.151s-424.729-133.914-510.685-341.151c-1.756-4.234-1.756-8.99 0-13.224s5.11-7.6 9.344-9.352l271.341-112.394c1.953-0.835 4.225-1.322 6.611-1.324h0.001c7.153 0.010 13.288 4.359 15.915 10.555l0.043 0.113c34.916 84.2 116.332 138.614 207.43 138.614 91.084 0 172.498-54.404 207.43-138.604 3.676-8.822 13.814-12.98 22.568-9.336l271.341 112.378c4.245 1.793 7.555 5.105 9.301 9.239l0.043 0.113c0.832 1.953 1.315 4.226 1.315 6.611s-0.484 4.658-1.358 6.724l0.043-0.113zM460.188 133.555c0-28.617 23.199-51.816 51.816-51.816s51.816 23.199 51.816 51.816v0c0 28.617-23.199 51.816-51.816 51.816s-51.816-23.199-51.816-51.816v0zM316.39 243.487c6.187 10.978 12.519 20.378 19.503 29.24l-0.363-0.478-273.349 182.648c-6.658-9.346-12.902-19.040-19.006-28.85l273.215-182.56zM529.274 685.616c-5.764 0.18-11.472 0.644-17.272 0.644s-11.508-0.464-17.272-0.644v-328.189c5.712 0.436 11.47 0.668 17.272 0.668s11.56-0.232 17.272-0.668v328.189zM373.23 310.167c8.375 6.646 17.758 12.994 27.61 18.614l1.1 0.578-182.476 273.087c-11.827-7.375-21.188-13.7-30.339-20.299l1.625 1.115 182.48-273.095zM410.382 333.749c8.855 4.636 19.408 9.11 30.337 12.763l1.577 0.457-125.78 303.647c-10.8-4.070-21.39-8.578-31.88-13.302l125.746-303.565zM10.663 322.529l271.341-112.394c1.953-0.835 4.225-1.322 6.611-1.324h0.001c7.153 0.010 13.288 4.359 15.915 10.555l0.043 0.113c2.795 6.757 5.22 11.919 7.828 16.972l-0.598-1.274-303.283 125.62c-2.37-5.252-4.986-10.342-7.204-15.694-0.833-1.955-1.317-4.228-1.317-6.615 0-7.155 4.35-13.294 10.549-15.916l0.113-0.043zM421.2 678.596c-11.392-1.88-22.738-3.936-33.916-6.508l64.124-322.395c9.549 2.793 21.036 5.135 32.804 6.567l1.080 0.107-64.092 322.229zM109.098 512.031l232.422-232.42c7.596 8.845 15.578 16.833 24.122 24.185l0.294 0.247-232.35 232.346c-8.378-7.882-16.596-15.94-24.488-24.358zM581.706 346.967c12.503-4.106 23.055-8.58 33.157-13.805l-1.243 0.585 125.746 303.565c-10.49 4.724-21.080 9.232-31.88 13.302l-125.78-303.647zM538.714 356.367c12.845-1.537 24.332-3.879 35.465-7.060l-1.581 0.386 64.124 322.395c-11.18 2.572-22.522 4.626-33.918 6.508l-64.090-322.229zM622.063 329.355c10.95-6.198 20.332-12.547 29.172-19.551l-0.464 0.355 182.482 273.097c-7.538 5.494-16.899 11.819-26.461 17.856l-2.253 1.328-182.476-273.085zM719.433 219.487c3.676-8.822 13.814-12.98 22.568-9.336l271.341 112.378c4.234 1.756 7.592 5.118 9.344 9.352s1.756 8.99 0 13.224c-2.22 5.352-4.834 10.44-7.204 15.694l-303.275-125.62c2.004-3.769 4.428-8.93 6.66-14.191l0.566-1.501zM890.417 536.389l-232.354-232.35c8.72-7.48 16.894-15.624 24.418-24.432l232.426 232.422c-7.894 8.42-16.11 16.478-24.49 24.36zM688.471 272.249c6.62-8.383 12.952-17.783 18.56-27.648l0.582-1.112 273.215 182.56c-6.104 9.808-12.348 19.504-19.006 28.85l-273.351-182.65z" />
<glyph unicode="&#xe6d7;" glyph-name="fashion" d="M709.6 734.2c16.2-5.5 29.6-18.9 33-37.6 0-0.3 0.1-0.5 0.1-0.8 5.4-31.4-0.6-61.2-14.4-85.9h0.1s-21-33.2-26.7-44.3c-18.7-36.5-27.9-77.2-27.9-118.2v-44.8h-323.6v44.8c0 41-9.2 81.7-27.9 118.2-5.7 11.1-26.7 44.3-26.7 44.3h0.1c-13.8 24.8-19.8 54.5-14.4 85.9 0 0.3 0.1 0.5 0.1 0.8 3.7 20.6 19.6 34.8 38.1 39l0.2 61.2c0 19.2 13.4 34.9 29.7 34.9s29.7-15.7 29.7-34.9l-0.2-81.6c39.2-22.7 84.6-35.7 133.1-35.7 50.6 0 97.9 14.2 138.2 38.7l0.3 78.7c0 19.2 13.4 34.9 29.7 34.9 16.4 0 29.7-15.7 29.7-34.9l-0.3-62.7zM673.8 420.9h-323.6l-178.2-323.1c-9.7-17.5-4.9-39.5 11.1-51.5 91.4-69.1 205.1-110.1 328.3-110.1 123.8 0 238 41.3 329.6 111 15.9 12.1 20.7 34 11 51.5l-178.2 322.2zM400.1 367.2c-5.5 2.7-12.2 0.5-14.9-5l-137.1-277c-2.7-5.5-0.5-12.2 5-14.9 1.6-0.8 3.3-1.2 4.9-1.2 4.1 0 8 2.3 10 6.2l137.1 277c2.8 5.5 0.5 12.2-5 14.9zM450.2 249.6c-5.9 1.4-12-2.3-13.4-8.3l-44.6-188.7c-1.4-6 2.3-12 8.3-13.4 0.9-0.2 1.7-0.3 2.6-0.3 5 0 9.6 3.4 10.8 8.6l44.6 188.7c1.4 5.9-2.3 11.9-8.3 13.4zM775.9 85.2l-137.1 277c-2.7 5.5-9.4 7.8-14.9 5-5.5-2.7-7.8-9.4-5-14.9l137.1-277c1.9-3.9 5.9-6.2 10-6.2 1.7 0 3.3 0.4 4.9 1.2 5.5 2.7 7.7 9.4 5 14.9zM587.2 241.3c-1.4 6-7.4 9.7-13.4 8.3s-9.7-7.4-8.3-13.4l44.6-188.7c1.2-5.1 5.8-8.6 10.8-8.6 0.8 0 1.7 0.1 2.6 0.3 6 1.4 9.7 7.4 8.3 13.4l-44.6 188.7z" />
<glyph unicode="&#xe6de;" glyph-name="play-tv-3" d="M271.348 401.399h96.923l-38.744-208.555h58.159l38.786 208.555h77.551l19.35 56.851h-232.632l-21.035-52.402 1.642-4.448zM639.734 268.668l-38.766 189.582h-58.201l38.808-265.406h77.552l96.923 265.406h-58.18l-58.137-189.582zM667.593-72.505h-309.601c-15.636 0-31.616-0.14-31.616-15.851 0-15.615 12.742-28.357 28.291-28.357h321.068c15.571 0 28.27 12.742 28.27 28.357 0 15.712 1.338 15.851-14.275 15.851h-22.137zM988.166 679.395h-950.661c-20.841 0-33.344-12.547-33.344-33.572v-585.653c0-20.927 9.632-44.207 44.208-44.207h928.825c20.862 0 44.229 23.183 44.229 44.207v585.653c0.13 20.927-12.353 33.572-33.257 33.572v0 0 0 0zM977.194 82.306c0-10.496-11.662-22.136-22.114-22.136h-884.577c-10.452 0-21.364 4.729-21.364 15.171l-0.772 537.722c0 10.485 11.683 22.072 22.135 22.072h884.577c10.452 0 22.114-11.63 22.114-22.072v-530.756z" />
<glyph unicode="&#xe900;" glyph-name="play-tv-1" d="M864 0h-704c-52.8 0-96 43.2-96 96v576c0 52.8 43.2 96 96 96h704c52.8 0 96-43.2 96-96v-576c0-52.8-43.2-96-96-96zM160 704c-17.6 0-32-14.4-32-32v-576c0-17.6 14.4-32 32-32h704c17.6 0 32 14.4 32 32v576c0 17.6-14.4 32-32 32h-704zM433.6 224c-4.8 0-11.2 1.6-16 4.8-9.6 6.4-16 16-16 27.2v256c0 11.2 6.4 22.4 16 27.2 9.6 6.4 22.4 6.4 32 0l222.4-128c9.6-6.4 16-16 16-27.2s-6.4-22.4-16-27.2l-222.4-128c-4.8-3.2-11.2-4.8-16-4.8zM465.6 456v-145.6l126.4 72-126.4 73.6z" />
<glyph unicode="&#xe901;" glyph-name="down-1" d="M222.5 315.6h-74.1c-46.4 0-84 37.6-84 84v286.4c0 46.4 37.6 84 84 84h74.1v-454.4zM896.6 315.6h-205.6c-23.7 0-38.1-26.3-25.1-46.1 34.7-52.9 65.4-113.9 71.7-181.1 10.2-109.4-136.2-148.2-190.3-33.2-9.9 21.1-23.4 57.9-37 97.4-32 93.2-117.3 156.9-214.8 162.5v454.9h440.5c55.7 0 105.2-35.4 123.1-88.1l96.8-283.4c13.9-40.6-16.3-82.9-59.3-82.9z" />
<glyph unicode="&#xe902;" glyph-name="menu" d="M800 768h-576c-89.6 0-160-70.4-160-160v-448c0-89.6 70.4-160 160-160h576c89.6 0 160 70.4 160 160v448c0 89.6-70.4 160-160 160zM896 160c0-54.4-41.6-96-96-96h-576c-54.4 0-96 41.6-96 96v448c0 54.4 41.6 96 96 96h576c54.4 0 96-41.6 96-96v-448zM240 512h64v-64h-64zM368 512h384v-64h-384zM432 320h352v-64h-352zM304 320h64v-64h-64z" />
<glyph unicode="&#xe903;" glyph-name="up-1" d="M884.876 472.857h-237.905c92.186 340.464-63.517 357.853-63.517 357.853-65.993 0-52.312-52.182-57.303-60.882 0-166.502-176.85-296.972-176.85-296.972v-472.172c0-46.608 63.517-63.394 88.433-63.394h357.452c33.641 0 61.036 88.224 61.036 88.224 88.434 300.706 88.434 390.177 88.434 390.177 0.001 62.128-59.781 57.164-59.781 57.164v0 0zM251.671 472.7h-142.457c-29.42 0-29.873-28.896-29.873-28.896l29.42-476.203c0-30.309 30.361-30.309 30.361-30.309h123.297c25.686 0 25.459 20.050 25.459 20.050v479.247c0 36.574-36.208 36.111-36.208 36.111v0 0z" />
<glyph unicode="&#xe904;" glyph-name="flower" d="M1000.727 507.345c4.655 20.945-6.982 37.236-13.964 44.218-34.909 48.873-97.745 104.727-153.6 134.982-30.255 16.291-62.836 27.927-95.418 34.909-32.582 9.309-67.491 13.964-102.4 13.964-18.618 4.655-79.127 116.364-93.091 130.327-4.655 6.982-11.636 6.982-20.945 6.982-34.909-9.309-67.491-18.618-102.4-34.909-30.255-16.291-60.509-34.909-88.436-60.509-25.6-20.945-48.873-48.873-72.145-79.127-18.618-30.255-37.236-76.8-51.2-102.4-34.909-16.291-137.309-55.855-137.309-55.855s-25.6-11.636-37.236-23.273-13.964-37.236-13.964-46.545c0-32.582 2.327-65.164 9.309-100.073 9.309-32.582 16.291-62.836 30.255-93.091s30.255-58.182 51.2-86.109c18.618-25.6 74.473-79.127 74.473-79.127s-4.655-86.109 6.982-139.636c2.327-16.291 9.309-27.927 13.964-34.909 25.6-25.6 95.418-44.218 130.327-44.218 83.782-4.655 144.291 6.982 190.836 23.273 25.6 9.309 74.473 37.236 86.109 44.218h4.655l134.982-51.2c6.982-2.327 25.6 0 32.582 4.655s23.273 25.6 27.927 32.582c27.927 30.255 69.818 132.655 76.8 176.873 4.655 32.582 9.309 62.836 9.309 95.418-2.327 32.582-4.655 65.164-13.964 95.418v13.964c4.655 6.982 107.055 137.309 116.364 179.2zM358.4 253.673c-11.636-11.636-30.255-11.636-41.891 0s-11.636 30.255 0 41.891l53.527 53.527-55.855 41.891c-13.964 9.309-16.291 27.927-6.982 39.564 9.309 13.964 27.927 16.291 39.564 6.982l90.764-65.164c11.636-9.309 13.964-25.6 2.327-34.909l-81.455-83.782zM651.636 302.545c-32.582 0-58.182 25.6-58.182 58.182s25.6 58.182 58.182 58.182 58.182-25.6 58.182-58.182-25.6-58.182-58.182-58.182z" />
<glyph unicode="&#xe905;" glyph-name="app" d="M575.68 160c0-88.542 71.778-160.32 160.32-160.32s160.32 71.778 160.32 160.32c0 88.542-71.778 160.32-160.32 160.32h-136.107c-13.461 0-24.192-10.752-24.192-24.192v-136.128zM736 362.667c111.93 0 202.667-90.737 202.667-202.667s-90.737-202.667-202.667-202.667c-111.93 0-202.667 90.737-202.667 202.667v0 136.107c0 0.038 0 0.083 0 0.128 0 36.689 29.743 66.432 66.432 66.432 0.038 0 0.075 0 0.113 0h136.122zM490.667 160c0-111.93-90.737-202.667-202.667-202.667s-202.667 90.737-202.667 202.667c0 111.93 90.737 202.667 202.667 202.667v0h136.128c0.032 0 0.069 0 0.107 0 36.689 0 66.432-29.743 66.432-66.432 0-0.038 0-0.075 0-0.112v0.006-136.128zM288 320.32c-88.542 0-160.32-71.778-160.32-160.32s71.778-160.32 160.32-160.32c88.542 0 160.32 71.778 160.32 160.32v0 136.107c0 13.44-10.731 24.192-24.192 24.192h-136.128zM533.333 608.021c0.012 111.92 90.744 202.645 202.667 202.645 111.93 0 202.667-90.737 202.667-202.667s-90.737-202.667-202.667-202.667h-136.107c-0.038 0-0.083 0-0.128 0-36.689 0-66.432 29.743-66.432 66.432 0 0.038 0 0.075 0 0.113v-0.006 136.128zM736 447.68c88.542 0 160.32 71.778 160.32 160.32s-71.778 160.32-160.32 160.32c-88.542 0-160.32-71.778-160.32-160.32v0-136.128c0-13.44 10.731-24.192 24.192-24.192h136.128zM448.32 608c0 88.542-71.778 160.32-160.32 160.32s-160.32-71.778-160.32-160.32c0-88.542 71.778-160.32 160.32-160.32v0h136.128c13.461 0 24.192 10.752 24.192 24.192v136.128zM288 405.333c-111.93 0-202.667 90.737-202.667 202.667s90.737 202.667 202.667 202.667c111.93 0 202.667-90.737 202.667-202.667v0-136.128c0-0.032 0-0.069 0-0.107 0-36.689-29.743-66.432-66.432-66.432-0.038 0-0.075 0-0.112 0h-136.122z" />
<glyph unicode="&#xe906;" glyph-name="up-2" d="M910.222 99.556c-17.067 0-34.133 5.689-45.511 17.067l-312.889 369.778c-11.378 5.689-17.067 11.378-34.133 11.378-5.689 0-22.756-5.689-28.444-11.378l-329.956-364.089c-22.756-22.756-56.889-22.756-79.644-5.689-22.756 22.756-22.756 56.889-5.689 79.644l329.956 364.089c28.444 34.133 73.956 51.2 119.467 51.2s85.333-22.756 119.467-56.889l312.889-364.089c22.756-22.756 17.067-56.889-5.689-79.644-11.378-5.689-28.444-11.378-39.822-11.378z" />
<glyph unicode="&#xe907;" glyph-name="down-2" d="M517.689 99.556c-45.511 0-85.333 17.067-119.467 51.2l-324.267 364.089c-22.756 22.756-17.067 56.889 5.689 79.644s56.889 17.067 79.644-5.689l329.956-364.089c5.689-5.689 17.067-11.378 28.444-11.378s22.756 5.689 34.133 17.067l312.889 364.089c22.756 22.756 56.889 28.444 79.644 5.689s28.444-56.889 5.689-79.644l-312.889-364.089c-28.444-39.822-68.267-56.889-119.467-56.889 5.689 0 0 0 0 0z" />
<glyph unicode="&#xe908;" glyph-name="clock" d="M839.104 703.040c-83.416 83.852-198.888 135.745-326.48 135.745-0.399 0-0.798-0.001-1.197-0.002h0.062c-0.372 0.001-0.812 0.002-1.253 0.002-127.576 0-243.030-51.894-326.407-135.725l-0.020-0.020c-83.851-83.397-135.746-198.852-135.746-326.427 0-0.44 0.001-0.881 0.002-1.321v0.068c0-90.176 25.92-177.6 74.944-252.8 5.837-8.85 15.734-14.61 26.976-14.61 17.789 0 32.21 14.421 32.21 32.21 0 6.547-1.953 12.637-5.308 17.721l0.075-0.121c-40.439 61.253-64.512 136.405-64.512 217.18 0 0.147 0 0.295 0 0.442v-0.022c0.291 220.183 178.724 398.593 398.888 398.848h0.024c219.968 0 398.848-178.944 398.848-398.848s-178.944-398.848-398.848-398.848c-0.105 0-0.229 0-0.354 0-76.014 0-147.052 21.306-207.468 58.271l1.743-0.991c-4.613 2.696-10.156 4.288-16.070 4.288-17.814 0-32.256-14.442-32.256-32.256 0-11.379 5.892-21.381 14.791-27.123l0.127-0.077c68.145-41.802 150.658-66.56 238.954-66.56 0.165 0 0.33 0 0.495 0h-0.025c0.38-0.001 0.829-0.002 1.279-0.002 127.535 0 242.956 51.869 326.317 135.662l0.020 0.020c87.488 87.552 135.744 203.968 135.744 327.68s-48 240.064-135.552 327.616zM493.632 692.544c0 0 0 0 0 0-22.516 0-40.768-18.252-40.768-40.768 0-0.022 0-0.045 0-0.067v0.003-293.504c0-1.408 0.384-2.816 0.512-4.16 2.328-20.259 19.379-35.846 40.071-35.846 0.245 0 0.49 0.002 0.734 0.007l-0.037-0.001 0.128 0.896h231.488c0.482-0.020 1.048-0.032 1.616-0.032 22.551 0 40.832 18.281 40.832 40.832s-18.281 40.832-40.832 40.832c-0.568 0-1.134-0.012-1.697-0.035l0.081 0.003h-191.296v251.008c0 22.551-18.281 40.832-40.832 40.832v0z" />
<glyph unicode="&#xe90a;" glyph-name="coin" d="M512 832c246.4 0 448-198.4 448-448 0-246.4-201.6-448-448-448-249.6 0-448 201.6-448 448 0 249.6 198.4 448 448 448zM540.8 531.2v-70.4h172.8v-230.4h-57.6v176h-115.2v-406.4c198.4 16 355.2 182.4 355.2 384 0 214.4-172.8 384-384 384-214.4 0-384-169.6-384-384 0-201.6 156.8-368 355.2-384v403.2h-115.2v-176h-57.6v233.6h172.8v67.2l-169.6-16-6.4 57.6 403.2 35.2 6.4-57.6-176-16z" />
<glyph unicode="&#xe90b;" glyph-name="play-history" d="M774.982 325.818c23.273 0 39.564-2.327 60.509-9.309v293.236c0 81.455-67.491 146.618-148.945 146.618h-418.909c-83.782 0-151.273-65.164-151.273-146.618v-418.909c0-81.455 67.491-146.618 148.945-146.618h293.236c-6.982 18.618-9.309 39.564-9.309 60.509 0 118.691 102.4 221.091 225.745 221.091zM407.273 235.055c-11.636 0-23.273 11.636-23.273 20.945v286.255c0 11.636 11.636 20.945 23.273 20.945 6.982 0 9.309-2.327 13.964-6.982l193.164-139.636c6.982-4.655 9.309-11.636 9.309-18.618 0-9.309-4.655-13.964-9.309-18.618l-193.164-139.636c-2.327-2.327-9.309-4.655-13.964-4.655zM774.982 279.273c-97.745 0-179.2-79.127-179.2-179.2 0-97.745 79.127-179.2 179.2-179.2 97.745 0 179.2 79.127 179.2 179.2s-79.127 179.2-179.2 179.2zM861.091 53.527c-9.309-13.964-25.6-18.618-39.564-9.309l-58.182 30.255h-2.327c-2.327 0-2.327 2.327-4.655 2.327l-4.655 4.655c0 2.327-2.327 2.327-2.327 4.655-4.655 4.655-4.655 9.309-4.655 11.636v60.509c0 16.291 11.636 30.255 30.255 30.255 16.291 0 30.255-11.636 30.255-30.255v-41.891l46.545-20.945c11.636-6.982 16.291-25.6 9.309-41.891z" />
<glyph unicode="&#xe90c;" glyph-name="star-s" d="M877.278 520.605l-219.34 31.618-98.8 199.58c-5.929 11.857-19.761 19.76-33.593 19.76s-25.689-7.903-33.593-21.735l-94.85-201.559-219.34-31.614c-13.832-1.975-25.689-11.857-29.64-25.689-3.953-13.832 0-27.664 9.879-37.544l160.060-156.107-29.642-221.315c-1.975-13.831 3.953-27.664 13.831-35.571 5.929-3.949 13.832-7.903 21.736-7.903 5.928 0 11.857 1.979 17.785 3.954l187.722 104.729 185.747-102.755c5.928-1.974 11.857-3.949 17.785-3.949 19.761 0 35.569 15.806 35.569 37.543v7.903l-29.639 219.34 158.082 158.082c9.878 9.882 13.832 23.714 9.878 37.546-5.925 13.833-15.807 23.711-29.639 25.686v0zM367.462 301.266c1.975 11.857-1.978 25.689-11.857 33.593l-152.154 138.325 213.412 29.64c11.857 1.975 23.71 9.878 29.639 21.735l79.043 183.772 86.944-179.818c5.928-11.857 15.81-19.761 29.642-21.74l207.482-33.589-148.203-142.275c-9.878-7.904-13.832-21.735-9.878-33.593l23.71-205.508-167.961 98.801c-9.879 5.928-23.711 3.953-35.569-1.975l-171.914-94.85 27.665 207.481zM527.52 735.506l-105.060-202.615-243.547-49.119 174.303-176.009-35.133-239.454 218.988 102.331 192.382-92.098-22.513 223.081 159.636 169.869-229.221 40.932z" />
<glyph unicode="&#xe90d;" glyph-name="home" d="M805.695-77.009c-1.963 0-3.541 0.054-4.672 0.111h-597.755c-40.042 0-63.091 16.865-75.375 31.013-26.919 31.003-24.757 73.037-23.543 84.7v359.53h64v-363.913l-0.302-1.883c-0.761-6.401-0.833-26.277 8.289-36.609 1.93-2.186 7.803-8.838 26.932-8.838l601.058-0.082c2.153-0.076 22.315-0.434 34.996 11.557 8.454 7.994 12.74 21.212 12.74 39.288v360.756h64v-360.756c0-45.871-18.247-72.371-33.555-86.525-27.534-25.46-62.416-28.348-76.813-28.349zM136.349 368.312h-98.349c-13.291 0-25.197 8.214-29.916 20.639-4.718 12.425-1.266 26.472 8.674 35.294l472.219 419.090c12.020 10.668 30.087 10.766 42.223 0.227l478.781-415.791c9.955-8.646 13.588-22.513 9.151-34.929s-16.035-20.84-29.216-21.219l-104.938-3.012c-0.313-0.010-0.624-0.014-0.936-0.014-17.247 0-31.471 13.729-31.97 31.082-0.507 17.666 13.403 32.398 31.069 32.905l22.931 0.658-395.624 343.579-388.182-344.509h14.083c17.673 0 32-14.327 32-32s-14.327-32-32-32zM403-45.201c-14.912 0-27 12.088-27 27v225.846c0.002 4.866 1.234 24.9 20.021 43.995 22.8 23.173 61.458 34.923 114.901 34.923 52.638 0 90.876-11.911 113.652-35.403 19.225-19.828 20.464-40.706 20.426-46.244v-222.25c0-14.912-12.088-27-27-27s-27 12.088-27 27v221.932c-0.179 1.167-1.308 6.104-8.017 11.541-7.569 6.134-26.997 16.424-72.062 16.424-52.272 0-70.848-13.145-76.408-18.795-2.73-2.775-3.876-5.136-4.357-6.627-0.073-0.225-0.123-0.411-0.157-0.549v-224.793c0.001-14.912-12.087-27-26.999-27zM410 170l-9-206-238 13-17 254 5 166-71 23 429 389 423-369-43-41-18-370-17-57-224-8-4 149-14 100-28 23-55 9-68-6-42-6z" />
<glyph unicode="&#xe90e;" glyph-name="block" d="M435.2 313.6c-44.8-51.2-38.4-128 12.8-172.8 12.8-12.8 32-19.2 44.8-25.6v-57.6c0-19.2 12.8-32 32-32s32 12.8 32 32v57.6c25.6 6.4 44.8 19.2 64 38.4 44.8 51.2 38.4 128-12.8 172.8s-128 38.4-172.8-12.8zM576 198.4c-25.6-25.6-57.6-32-83.2-6.4s-32 57.6-6.4 83.2c25.6 25.6 57.6 32 83.2 6.4 25.6-19.2 32-57.6 6.4-83.2zM934.4 537.6h-89.6v44.8c0 172.8-140.8 313.6-313.6 313.6v0c-172.8 0-313.6-140.8-313.6-313.6v-51.2h-89.6c-32 0-64-25.6-64-64v-531.2c0-38.4 32-64 64-64h800c38.4 0 64 32 64 64v537.6c0 38.4-25.6 64-57.6 64zM281.6 582.4c0 140.8 108.8 249.6 249.6 249.6v0c134.4 0 249.6-108.8 249.6-249.6v-51.2h-499.2v51.2zM928-44.8c0-12.8-6.4-25.6-25.6-25.6h-748.8c-12.8 0-25.6 12.8-25.6 25.6v492.8c0 12.8 12.8 25.6 25.6 25.6h748.8c12.8 0 25.6-12.8 25.6-25.6v-492.8z" />
<glyph unicode="&#xe90f;" glyph-name="download" d="M487.119 197.252c3.248-3.261 7.149-5.848 11.472-7.636 4.295-1.776 8.853-2.708 13.427-2.708s9.129 0.931 13.424 2.708c4.326 1.79 8.225 4.375 11.474 7.636l225.006 225.006c13.731 13.731 13.731 35.975 0 49.706s-35.975 13.731-49.706 0l-165.048-165.047v432.972c0 19.43-15.722 35.152-35.152 35.152s-35.152-15.722-35.152-35.152v-432.978l-165.080 165.052c-13.731 13.731-35.975 13.731-49.706 0s-13.731-35.975 0-49.706l225.040-225.005zM840.771 689.977c-19.43 0-35.152-15.722-35.152-35.152s15.722-35.152 35.152-35.152c26.501 0 47.028-14.795 47.028-27.496v-501.043c0-12.701-20.528-27.461-47.028-27.461h-657.542c-26.501 0-47.028 14.761-47.028 27.461v501.043c0 12.701 20.528 27.496 47.028 27.496 19.43 0 35.152 15.722 35.152 35.152s-15.722 35.152-35.152 35.152c-64.707 0-117.331-43.87-117.331-97.798v-501.043c0-53.894 52.624-97.765 117.331-97.765h657.542c64.707 0 117.331 43.87 117.331 97.765v501.042c0 53.928-52.625 97.799-117.331 97.799z" />
<glyph unicode="&#xe910;" glyph-name="cloud-download" d="M795.927 418.909c-13.964 2.327-23.273 13.964-23.273 27.927 0 102.4-65.164 197.818-162.909 228.073-134.982 41.891-262.982-34.909-302.545-151.273-2.327-9.309-11.636-16.291-20.945-18.618-109.382-20.945-193.164-118.691-193.164-235.055v-2.327c0-104.727 88.436-186.182 190.836-186.182h477.091c93.091 2.327 167.564 76.8 167.564 169.891 2.327 81.455-55.855 148.945-132.655 167.564zM656.291 323.491l-109.382-109.382c-11.636-11.636-27.927-13.964-41.891-9.309h-2.327c-4.655 2.327-9.309 4.655-13.964 9.309l-109.382 109.382c-13.964 13.964-13.964 39.564 0 53.527s39.564 13.964 53.527 0l46.545-46.545v123.345c0 20.945 16.291 37.236 37.236 37.236s37.236-16.291 37.236-37.236v-123.345l46.545 46.545c16.291 16.291 39.564 16.291 55.855 0 16.291-13.964 16.291-37.236 0-53.527z" />
<glyph unicode="&#xe911;" glyph-name="star-b" d="M576.4 692.7c46.7-90.9 118.6-145.5 215.7-163.9s111.5-64.9 43.3-139.5-95.6-162.9-82.3-265.2c13.2-102.3-24.6-131-113.4-86.2s-177.7 44.8-266.6 0-126.6-16-113.4 86.2c13.2 102.3-14.2 190.7-82.4 265.2-68.2 74.6-53.7 121.1 43.3 139.5 97.1 18.4 169 73 215.7 163.9 46.6 90.9 93.4 90.9 140.1 0z" />
<glyph unicode="&#xe912;" glyph-name="game-1" d="M906.083 30.519c-65.494 0-102.844 39.16-146.092 84.504-15.315 16.049-31.151 32.656-49.649 49.161-48.431 43.226-97.175 49.178-142.629 49.178-8.149 0-16.055-0.188-23.662-0.369-7.315-0.182-14.364-0.348-21.105-0.348h-21.891c-6.741 0-13.789 0.166-21.096 0.348-7.615 0.181-15.521 0.369-23.672 0.369-45.453 0-94.198-5.952-142.627-49.178-18.498-16.505-34.334-33.112-49.651-49.161-43.248-45.344-80.598-84.504-146.092-84.504-25.506 0-46.839 9.379-63.408 27.877-42.414 47.366-52.745 154.588-32.531 337.44 27.861 251.897 143.038 341.646 241.534 341.646 35.492 0 59.825-14.6 85.591-30.067 35.515-21.308 75.771-45.468 162.897-45.468s127.381 24.16 162.896 45.468c25.767 15.467 50.099 30.067 85.591 30.067 98.497 0 213.674-89.749 241.535-341.646 20.214-182.852 9.883-290.074-32.531-337.44-16.567-18.499-37.901-27.877-63.408-27.877zM567.713 245.616c49.359 0 107.459-6.811 164.111-57.366 19.458-17.372 35.751-34.452 51.508-50.967 41.257-43.255 71.070-74.51 122.751-74.51 16.167 0 29.050 5.606 39.382 17.144 34.87 38.939 43.106 144.037 24.49 312.375-25.514 230.73-124.932 312.935-209.468 312.935-26.562 0-45.287-11.237-68.991-25.467-37.176-22.302-83.44-50.067-179.496-50.067s-142.32 27.766-179.497 50.067c-23.703 14.229-42.429 25.467-68.991 25.467-84.535 0-183.954-82.204-209.468-312.935-18.616-168.338-10.379-273.436 24.491-312.375 10.332-11.537 23.215-17.144 39.382-17.144 51.682 0 81.496 31.255 122.751 74.51 15.757 16.515 32.050 33.595 51.509 50.967 66.305 59.179 134.603 58.272 188.553 56.988 7.040-0.172 13.827-0.338 20.324-0.338h21.891c6.497 0 13.285 0.166 20.325 0.338 7.859 0.19 16.026 0.378 24.443 0.378zM811.705 530.674c0-26.727-21.663-48.382-48.382-48.382-26.721 0-48.383 21.655-48.383 48.382 0 26.728 21.662 48.383 48.383 48.383 26.719 0.001 48.382-21.655 48.382-48.383zM811.705 337.145c0-26.727-21.663-48.383-48.382-48.383-26.721 0-48.383 21.656-48.383 48.383s21.662 48.383 48.383 48.383c26.719 0 48.382-21.656 48.382-48.383zM860.080 385.528c-26.72 0-48.383 21.655-48.383 48.382s21.663 48.382 48.383 48.382c26.718 0 48.383-21.656 48.383-48.382s-21.665-48.382-48.383-48.382zM666.549 385.528c-26.719 0-48.382 21.655-48.382 48.382s21.663 48.382 48.382 48.382c26.721 0 48.384-21.656 48.384-48.382s-21.663-48.382-48.384-48.382zM387.020 466.165h-80.646v80.637c0 17.813-14.442 32.255-32.255 32.255s-32.255-14.442-32.255-32.255v-80.637h-80.63c-17.813 0-32.254-14.442-32.254-32.255s14.442-32.255 32.254-32.255h80.63v-80.637c0-17.813 14.442-32.257 32.255-32.257s32.255 14.443 32.255 32.257v80.637h80.646c17.813 0 32.254 14.442 32.254 32.255s-14.441 32.255-32.254 32.255z" />
<glyph unicode="&#xe913;" glyph-name="transpond" d="M565.934 78.426c-0.213-1.448-0.335-3.12-0.335-4.82 0-9.592 3.879-18.278 10.154-24.575l-0.001 0.001 0.302-0.241c6.464-6.744 15.54-10.942 25.596-10.963h0.004c11.143 0 20.66 5.42 27.226 13.312l354.545 387.072c6.371 6.358 10.312 15.147 10.312 24.858 0 0.791-0.026 1.576-0.078 2.354l0.006-0.106c0.047 0.679 0.074 1.472 0.074 2.271 0 9.703-3.942 18.486-10.313 24.834l-0.001 0.001-356.533 389.24c-6.584 6.48-15.625 10.482-25.6 10.482s-19.016-4.001-25.605-10.486l0.005 0.005c-6.239-6.308-10.094-14.986-10.094-24.564 0-1.704 0.122-3.38 0.358-5.018l-0.022 0.187v-209.619c-295.996 0-535.974-238.893-535.974-533.684 0-0.044 0-0.096 0-0.148 0-76.828 16.363-149.834 45.795-215.723l-1.341 3.361c42.286 222.268 255.398 391.107 490.918 391.107l0.602-209.137z" />
<glyph unicode="&#xe914;" glyph-name="person1" d="M828.3 77.8c-8 66.8-31.8 129.9-68.7 182.4-31.8 45.2-72.1 81-117.7 104.6 27.5 20.6 49.7 47.2 64.9 78 19.6 39.6 26.4 84.2 19.7 128.8-6.5 43.2-26 83.2-56.4 115.7-30.6 32.7-69.2 54.7-111.9 63.6-15.7 3.3-31.5 4.9-47 4.9-58.2 0-112.9-22.7-154-63.8s-63.8-95.8-63.8-154c0-38.3 10.2-76 29.5-108.9 14.7-25 34.3-46.9 57.6-64.4-45.6-23.7-86-59.5-117.7-104.7-36.9-52.5-60.7-115.5-68.7-182.4-2-16.3 3.2-32.8 14.2-45.1 11.1-12.5 26.9-19.7 43.5-19.7h518.8c16.6 0 32.5 7.2 43.5 19.7 10.9 12.6 16.1 29.1 14.2 45.3zM429.2 309.6c20.1 8.5 33.6 27.3 35.2 49.2 1.5 21.8-9.2 42.4-28.1 53.7-45.2 27-72.2 74-72.2 125.6 0 81.1 65.9 147 147 147 10.6 0 21.5-1.1 32.5-3.4 57.6-12 103.9-61.6 112.8-120.6 9-60.3-18-117.3-70.4-148.7-18.8-11.2-29.5-31.7-28.1-53.7 1.6-21.9 15-40.7 35.2-49.2 84.6-35.7 146-121.6 162.5-225.6h-489.2c16.9 104.1 78.4 190.1 162.8 225.7z" />
<glyph unicode="&#xe915;" d="M640.8 579.5c-0.9-1.2-0.9-3.1 0-4.2l90-123c0.9-1.2 0.4-2-1.1-1.8l-151.5 16.5c-1.4 0.2-3.1-0.8-3.7-2.1l-61.5-139.5c-0.6-1.3-1.5-1.3-2.1 0l-61.5 139.5c-0.6 1.3-2.2 2.3-3.7 2.1l-151.5-16.5c-1.4-0.2-1.9 0.7-1.1 1.8l90 123c0.9 1.2 0.9 3.1 0 4.2l-90 123c-0.9 1.2-0.4 2 1.1 1.8l151.5-16.5c1.4-0.2 3.1 0.8 3.7 2.1l61.5 139.5c0.6 1.3 1.5 1.3 2.1 0l61.5-139.5c0.6-1.3 2.2-2.3 3.7-2.1l151.5 16.5c1.4 0.2 1.9-0.7 1.1-1.8l-90-123z" />
<glyph unicode="&#xe916;" d="M137.2 311c0-206.996 167.804-374.8 374.8-374.8s374.8 167.804 374.8 374.8v0c0 206.996-167.804 374.8-374.8 374.8s-374.8-167.804-374.8-374.8v0z" />
<glyph unicode="&#xe917;" d="M659.2 390.1h-87.8l8.5 19.8c17 36.8 16.6 67.7 2.8 90.6-14.7 24.5-41.4 28.3-55.7 27.4-5.5-0.3-10.4-3.5-13.1-8.3l-75.9-129.7h-69.8c-11.1 0-20-9-20-20v-214.7c0-11.1 9-20 20-20h74.9v0.4c0.3 0 0.6-0.2 0.9-0.2h189.7c28.3 0 53.8 19.8 56.6 48.1l28.3 150c0 31.1-25.5 56.6-59.4 56.6z" />
<glyph unicode="&#xe918;" d="M401.4 169.7c-11.7 0-21.4 9.6-21.4 21.4v142.8c0 11.7 9.6 21.4 21.4 21.4 11.7 0 21.4-9.6 21.4-21.4v-142.9c-0.1-11.7-9.7-21.3-21.4-21.3z" />
<glyph unicode="&#xe919;" glyph-name="dance" d="M934.4 540.16c0 12.8-10.24 25.6-23.040 28.16s-25.6-2.56-33.28-12.8c-5.12-7.68-120.32-202.24-424.96-220.16 33.28 76.8 89.6 243.2 43.52 373.76-23.040 66.56-66.56 115.2-133.12 145.92-5.12 2.56-125.44 51.2-184.32-30.72-2.56-7.68-7.68-15.36-10.24-20.48-28.16-48.64-15.36-102.4 12.8-135.68-20.48-20.48-43.52-12.8-51.2-10.24-12.8 7.68-30.72 2.56-38.4-12.8s0-33.28 12.8-38.4c10.24-5.12 25.6-10.24 43.52-10.24 30.72 0 66.56 12.8 94.72 56.32 0 0 2.56 2.56 2.56 2.56 2.56 5.12 5.12 7.68 5.12 12.8 0 2.56 0 5.12 0 5.12s0 2.56 0 2.56c0 10.24-5.12 17.92-12.8 23.040 0 0-2.56 0-2.56 0-20.48 17.92-33.28 46.080-15.36 74.24 2.56 5.12 5.12 7.68 7.68 12.8 33.28 43.52 112.64 12.8 112.64 12.8 51.2-23.040 84.48-58.88 102.4-110.080 51.2-151.040-58.88-368.64-61.44-371.2-5.12-10.24-5.12-20.48 0-28.16s15.36-15.36 25.6-15.36c250.88 0 396.8 107.52 468.48 181.76 0-168.96-2.56-314.88-89.6-401.92-64-64-171.52-94.72-327.68-94.72-145.92 0-227.84 48.64-261.12 151.040-23.040 71.68 40.96 171.52 104.96 268.8 20.48 30.72 40.96 61.44 56.32 92.16 30.72 51.2 38.4 99.84 25.6 140.8-15.36 46.080-53.76 66.56-58.88 66.56-15.36 7.68-33.28 0-38.4-15.36-7.68-15.36 0-33.28 15.36-38.4 0 0 20.48-10.24 25.6-33.28 7.68-23.040 0-56.32-20.48-92.16-15.36-28.16-35.84-56.32-53.76-89.6-69.12-107.52-143.36-220.16-110.080-317.44 40.96-130.56 145.92-192 317.44-192 174.080 0 294.4 35.84 368.64 112.64 110.080 110.080 107.52 286.72 107.52 473.6l-2.56 53.76z" />
<glyph unicode="&#xe91a;" glyph-name="more" d="M512 597.35c0.622-0.016 1.355-0.026 2.090-0.026 47.138 0 85.35 38.213 85.35 85.35s-38.213 85.35-85.35 85.35c-0.735 0-1.468-0.009-2.198-0.028l0.108 0.002c-46.23-1.168-83.26-38.922-83.26-85.325s37.030-84.157 83.152-85.323l0.108-0.002zM426.65 384c0-47.138 38.213-85.35 85.35-85.35s85.35 38.213 85.35 85.35v0c0 47.138-38.213 85.35-85.35 85.35s-85.35-38.213-85.35-85.35v0zM512 0c47.138 0 85.35 38.213 85.35 85.35s-38.213 85.35-85.35 85.35v0c-47.138 0-85.35-38.213-85.35-85.35s38.213-85.35 85.35-85.35v0z" />
<glyph unicode="&#xe91b;" glyph-name="play" d="M852.728 503.553c104.27-66.027 104.214-173.112 0-239.103l-570.839-361.469c-104.27-66.027-188.798-23.034-188.798 95.882v770.277c0 118.981 84.584 161.873 188.798 95.882l570.839-361.469z" />
<glyph unicode="&#xe91c;" glyph-name="full-screen" horiz-adv-x="1365" d="M1194.5-74.482c0-30.529-24.749-55.278-55.278-55.278h-426.524c-30.529 0-55.278 24.749-55.278 55.278s24.749 55.278 55.278 55.278h426.524l-55.278-55.278v433.691c0 30.529 24.749 55.278 55.278 55.278s55.278-24.749 55.278-55.278v-433.691zM170.472 842.604c0 30.529 24.749 55.278 55.278 55.278h426.524c30.529 0 55.278-24.749 55.278-55.278s-24.749-55.278-55.278-55.278h-426.524l55.278 55.278v-433.691c0-30.529-24.749-55.278-55.278-55.278s-55.278 24.749-55.278 55.278v433.691z" />
<glyph unicode="&#xe91d;" glyph-name="pause" d="M757.52 822.893h-62.493c-34.526 0-62.498-27.984-62.498-62.511v-749.948c0-34.526 27.974-62.493 62.498-62.493h62.493c34.516 0 62.502 27.968 62.502 62.493v749.953c-0.001 34.524-27.984 62.509-62.502 62.509zM320.054 822.893h-62.502c-34.526 0-62.498-27.984-62.498-62.511v-749.948c0-34.526 27.974-62.493 62.498-62.493h62.502c34.505 0 62.493 27.968 62.493 62.493v749.953c-0.001 34.524-27.984 62.509-62.493 62.509z" />
<glyph unicode="&#xe91e;" glyph-name="ghost" d="M512 810.667c-212.053 0-384-171.947-384-384v-469.333l128 128 128-128 128 128 128-128 128 128 128-128v469.333c0 212.053-171.947 384-384 384zM384 554.667c46.933 0 85.333-38.4 85.333-85.333s-38.4-85.333-85.333-85.333c-46.933 0-85.333 38.4-85.333 85.333s38.4 85.333 85.333 85.333zM640 554.667c46.933 0 85.333-38.4 85.333-85.333s-38.4-85.333-85.333-85.333c-46.933 0-85.333 38.4-85.333 85.333s38.4 85.333 85.333 85.333z" />
<glyph unicode="&#xe91f;" glyph-name="download2" d="M795.927 418.909c-13.964 2.327-23.273 13.964-23.273 27.927 0 102.4-65.164 197.818-162.909 228.073-134.982 41.891-262.982-34.909-302.545-151.273-2.327-9.309-11.636-16.291-20.945-18.618-109.382-20.945-193.164-118.691-193.164-235.055v-2.327c0-104.727 88.436-186.182 190.836-186.182h477.091c93.091 2.327 167.564 76.8 167.564 169.891 2.327 81.455-55.855 148.945-132.655 167.564zM656.291 323.491l-109.382-109.382c-11.636-11.636-27.927-13.964-41.891-9.309h-2.327c-4.655 2.327-9.309 4.655-13.964 9.309l-109.382 109.382c-13.964 13.964-13.964 39.564 0 53.527s39.564 13.964 53.527 0l46.545-46.545v123.345c0 20.945 16.291 37.236 37.236 37.236s37.236-16.291 37.236-37.236v-123.345l46.545 46.545c16.291 16.291 39.564 16.291 55.855 0 16.291-13.964 16.291-37.236 0-53.527z" />
<glyph unicode="&#xe920;" glyph-name="clock2" d="M512 779.636c-216.436 0-395.636-179.2-395.636-395.636s179.2-395.636 395.636-395.636 395.636 176.873 395.636 395.636-176.873 395.636-395.636 395.636zM681.891 370.036c2.327-20.945-13.964-37.236-32.582-37.236h-123.345c-6.982-2.327-16.291 0-27.927 0h-2.327c-20.945 0-37.236-6.982-37.236 13.964v223.418c0 20.945 18.618 37.236 37.236 37.236 20.945 0 37.236-18.618 37.236-37.236v-160.582h111.709c20.945 0 34.909-16.291 34.909-34.909 2.327-2.327 2.327-4.655 2.327-4.655z" />
<glyph unicode="&#xe921;" glyph-name="msg-1" d="M512 100c-26.472 0.086-52.339 2.41-77.498 6.794l2.73-0.394-175.232-106.4v177.024c-91.36 64.144-150 162.496-150 272.976 0 193.296 179.088 350 400 350s400-156.704 400-350-179.088-350-400-350zM512 750c-193.296 0-350-134.32-350-300 0-101.664 59.2-191.344 149.376-245.6l-1.6-115.968 117.68 70.736c25.378-5.747 54.548-9.082 84.483-9.168h0.061c193.296 0 350 134.304 350 300s-156.704 300-350 300zM336 496c26.51 0 48-21.49 48-48s-21.49-48-48-48c-26.51 0-48 21.49-48 48v0c0 26.51 21.49 48 48 48v0zM512 496c26.51 0 48-21.49 48-48s-21.49-48-48-48c-26.51 0-48 21.49-48 48v0c0 26.51 21.49 48 48 48v0zM688 496c26.51 0 48-21.49 48-48s-21.49-48-48-48c-26.51 0-48 21.49-48 48v0c0 26.51 21.49 48 48 48v0z" />
<glyph unicode="&#xe922;" glyph-name="forbid" d="M512 831.3c-246.7 0-447.3-200.6-447.3-447.3 0-118.8 46.6-226.8 122.5-307 0.6-0.7 1-1.4 1.7-2 0.4-0.4 0.8-0.7 1.3-1 81.4-84.5 195.6-137.3 322-137.3 246.7 0 447.3 200.7 447.3 447.3s-200.8 447.3-447.5 447.3zM512 775.4c94.3 0 180.9-33.5 248.5-89.2l-550.7-550.7c-55.7 67.6-89.2 154.2-89.2 248.5 0 215.8 175.6 391.4 391.4 391.4zM512-7.4c-101.5 0-194 38.8-263.7 102.4l552.7 552.7c63.6-69.7 102.4-162.2 102.4-263.7 0-215.8-175.6-391.4-391.4-391.4z" />
<glyph unicode="&#xe923;" glyph-name="up-host" d="M800 768h-576c-89.6 0-160-70.4-160-160v-448c0-89.6 70.4-160 160-160h576c89.6 0 160 70.4 160 160v448c0 89.6-70.4 160-160 160zM896 160c0-54.4-41.6-96-96-96h-576c-54.4 0-96 41.6-96 96v448c0 54.4 41.6 96 96 96h576c54.4 0 96-41.6 96-96v-448zM419.2 352c0-51.2-3.2-108.8-83.2-108.8s-83.2 57.6-83.2 108.8v217.6h-60.8v-243.2c0-96 51.2-140.8 140.8-140.8s147.2 48 147.2 144v240h-60.8v-217.6zM710.4 569.6h-156.8v-377.6h60.8v147.2h96c102.4 0 121.6 67.2 121.6 115.2 0 44.8-19.2 115.2-121.6 115.2zM707.2 390.4h-92.8v121.6h92.8c32 0 60.8-12.8 60.8-60.8 0-44.8-32-60.8-60.8-60.8z" />
<glyph unicode="&#xea40;" glyph-name="arrow-left" d="M402.746 18.746l-320 320c-24.994 24.992-24.994 65.516 0 90.51l320 320c24.994 24.992 65.516 24.992 90.51 0 24.994-24.994 24.994-65.516 0-90.51l-210.746-210.746h613.49c35.346 0 64-28.654 64-64s-28.654-64-64-64h-613.49l210.746-210.746c12.496-12.496 18.744-28.876 18.744-45.254s-6.248-32.758-18.744-45.254c-24.994-24.994-65.516-24.994-90.51 0z" />
<glyph unicode="&#x1f34c;" glyph-name="alter" d="M980.795 334.718c-23.744 0-43.2-19.84-43.328-44.032v-281.087c0.001-0.134 0.002-0.293 0.002-0.452 0-26.639-21.415-48.276-47.968-48.635h-754.974c-26.496 0-48 22.016-48 49.088v733.564c-0.001 0.13-0.002 0.283-0.002 0.436 0 26.642 21.413 48.283 47.967 48.651h291.106c23.68 0.128 43.2 19.968 43.2 44.288s-19.2 44.288-43.2 44.288h-297.279c-70.72 0-128.319-58.944-128.319-131.391v-746.044c0-72.448 57.6-131.391 128.319-131.391h767.356c70.72 0 128.319 58.944 128.319 131.327v287.359c-0.128 24.32-19.52 44.032-43.2 44.032zM322.75 389.565c-0.979-1.093-1.712-2.427-2.097-3.902l-0.015-0.066-56.32-210.559c-0.801-3.023-1.261-6.493-1.261-10.071 0-10.883 4.258-20.772 11.199-28.091l-0.017 0.018c6.908-6.919 16.457-11.2 27.006-11.2 0.023 0 0.046 0 0.069 0h-0.004c0.109-0.001 0.239-0.002 0.368-0.002 3.407 0 6.693 0.515 9.786 1.472l-0.234-0.062 203.967 56.704c0.233-0.085 0.502-0.135 0.782-0.135 0.063 0 0.125 0.002 0.186 0.007l-0.008-0.001c0.007 0 0.016 0 0.025 0 3.451 0 6.57 1.421 8.805 3.71l0.002 0.002 467.518 476.926c16.896 17.216 26.112 40.768 26.112 66.304 0 28.8-12.032 57.6-32.96 78.848l-51.712 52.928c-20.928 21.312-49.152 33.6-77.44 33.6-0.285 0.003-0.622 0.005-0.96 0.005-25.015 0-47.653-10.181-63.996-26.624l-0.005-0.005-467.326-477.054c-0.761-0.708-1.291-1.657-1.468-2.724l-0.004-0.028zM849.596 809.787c3.102 2.978 7.322 4.812 11.971 4.812 0.224 0 0.447-0.004 0.669-0.013l-0.032 0.001c6.817-0.049 12.969-2.855 17.405-7.357l0.003-0.003 51.84-52.928c4.499-4.528 7.329-10.719 7.487-17.57l0.001-0.030c0.003-0.125 0.005-0.273 0.005-0.421 0-4.8-1.878-9.16-4.94-12.387l0.007 0.008-51.904-53.184-83.712 86.72zM443.838 395.389l294.079 300.159 83.584-86.656-295.807-301.838c-3.504-3.423-8.301-5.535-13.592-5.535-5.458 0-10.391 2.247-13.924 5.867l-0.004 0.004-54.272 55.232c-4.093 4.25-6.614 10.039-6.614 16.416s2.521 12.166 6.621 16.423l-0.007-0.007zM359.23 233.15l22.080 82.688 68.032-69.44-80.896-22.528c-0.605-0.176-1.301-0.278-2.020-0.278-4.135 0-7.488 3.352-7.488 7.488 0 0.737 0.107 1.45 0.305 2.122l-0.013-0.053z" />
</font>
</defs>
</svg>
